<?xml version="1.0" encoding="utf-8" standalone="no"?>
<!DOCTYPE svg PUBLIC "-//W3C//DTD SVG 1.1//EN"
  "http://www.w3.org/Graphics/SVG/1.1/DTD/svg11.dtd">
<svg xmlns:xlink="http://www.w3.org/1999/xlink" width="1008pt" height="588.24pt" viewBox="0 0 1008 588.24" xmlns="http://www.w3.org/2000/svg" version="1.1">
 <metadata>
  <rdf:RDF xmlns:dc="http://purl.org/dc/elements/1.1/" xmlns:cc="http://creativecommons.org/ns#" xmlns:rdf="http://www.w3.org/1999/02/22-rdf-syntax-ns#">
   <cc:Work>
    <dc:type rdf:resource="http://purl.org/dc/dcmitype/StillImage"/>
    <dc:date>2025-03-12T16:15:44.833563</dc:date>
    <dc:format>image/svg+xml</dc:format>
    <dc:creator>
     <cc:Agent>
      <dc:title>Matplotlib v3.9.2, https://matplotlib.org/</dc:title>
     </cc:Agent>
    </dc:creator>
   </cc:Work>
  </rdf:RDF>
 </metadata>
 <defs>
  <style type="text/css">*{stroke-linejoin: round; stroke-linecap: butt}</style>
 </defs>
 <g id="figure_1">
  <g id="patch_1">
   <path d="M 0 588.24 
L 1008 588.24 
L 1008 0 
L 0 0 
z
" style="fill: #ffffff"/>
  </g>
  <g id="axes_1">
   <g id="patch_2">
    <path d="M 50.815865 550.044448 
L 497.967813 550.044448 
L 497.967813 18.118365 
L 50.815865 18.118365 
z
" style="fill: #ffffff"/>
   </g>
   <g id="matplotlib.axis_1">
    <g id="xtick_1">
     <g id="line2d_1">
      <defs>
       <path id="me6b2a32a1d" d="M 0 0 
L 0 3.5 
" style="stroke: #000000; stroke-width: 0.8"/>
      </defs>
      <g>
       <use xlink:href="#me6b2a32a1d" x="71.140954" y="550.044448" style="stroke: #000000; stroke-width: 0.8"/>
      </g>
     </g>
     <g id="text_1">
      <!-- 1 -->
      <g transform="translate(67.959704 564.642885) scale(0.1 -0.1)">
       <defs>
        <path id="DejaVuSans-31" d="M 794 531 
L 1825 531 
L 1825 4091 
L 703 3866 
L 703 4441 
L 1819 4666 
L 2450 4666 
L 2450 531 
L 3481 531 
L 3481 0 
L 794 0 
L 794 531 
z
" transform="scale(0.015625)"/>
       </defs>
       <use xlink:href="#DejaVuSans-31"/>
      </g>
     </g>
    </g>
    <g id="xtick_2">
     <g id="line2d_2">
      <g>
       <use xlink:href="#me6b2a32a1d" x="92.535784" y="550.044448" style="stroke: #000000; stroke-width: 0.8"/>
      </g>
     </g>
     <g id="text_2">
      <!-- 2 -->
      <g transform="translate(89.354534 564.642885) scale(0.1 -0.1)">
       <defs>
        <path id="DejaVuSans-32" d="M 1228 531 
L 3431 531 
L 3431 0 
L 469 0 
L 469 531 
Q 828 903 1448 1529 
Q 2069 2156 2228 2338 
Q 2531 2678 2651 2914 
Q 2772 3150 2772 3378 
Q 2772 3750 2511 3984 
Q 2250 4219 1831 4219 
Q 1534 4219 1204 4116 
Q 875 4013 500 3803 
L 500 4441 
Q 881 4594 1212 4672 
Q 1544 4750 1819 4750 
Q 2544 4750 2975 4387 
Q 3406 4025 3406 3419 
Q 3406 3131 3298 2873 
Q 3191 2616 2906 2266 
Q 2828 2175 2409 1742 
Q 1991 1309 1228 531 
z
" transform="scale(0.015625)"/>
       </defs>
       <use xlink:href="#DejaVuSans-32"/>
      </g>
     </g>
    </g>
    <g id="xtick_3">
     <g id="line2d_3">
      <g>
       <use xlink:href="#me6b2a32a1d" x="113.930614" y="550.044448" style="stroke: #000000; stroke-width: 0.8"/>
      </g>
     </g>
     <g id="text_3">
      <!-- 3 -->
      <g transform="translate(110.749364 564.642885) scale(0.1 -0.1)">
       <defs>
        <path id="DejaVuSans-33" d="M 2597 2516 
Q 3050 2419 3304 2112 
Q 3559 1806 3559 1356 
Q 3559 666 3084 287 
Q 2609 -91 1734 -91 
Q 1441 -91 1130 -33 
Q 819 25 488 141 
L 488 750 
Q 750 597 1062 519 
Q 1375 441 1716 441 
Q 2309 441 2620 675 
Q 2931 909 2931 1356 
Q 2931 1769 2642 2001 
Q 2353 2234 1838 2234 
L 1294 2234 
L 1294 2753 
L 1863 2753 
Q 2328 2753 2575 2939 
Q 2822 3125 2822 3475 
Q 2822 3834 2567 4026 
Q 2313 4219 1838 4219 
Q 1578 4219 1281 4162 
Q 984 4106 628 3988 
L 628 4550 
Q 988 4650 1302 4700 
Q 1616 4750 1894 4750 
Q 2613 4750 3031 4423 
Q 3450 4097 3450 3541 
Q 3450 3153 3228 2886 
Q 3006 2619 2597 2516 
z
" transform="scale(0.015625)"/>
       </defs>
       <use xlink:href="#DejaVuSans-33"/>
      </g>
     </g>
    </g>
    <g id="xtick_4">
     <g id="line2d_4">
      <g>
       <use xlink:href="#me6b2a32a1d" x="135.325444" y="550.044448" style="stroke: #000000; stroke-width: 0.8"/>
      </g>
     </g>
     <g id="text_4">
      <!-- 4 -->
      <g transform="translate(132.144194 564.642885) scale(0.1 -0.1)">
       <defs>
        <path id="DejaVuSans-34" d="M 2419 4116 
L 825 1625 
L 2419 1625 
L 2419 4116 
z
M 2253 4666 
L 3047 4666 
L 3047 1625 
L 3713 1625 
L 3713 1100 
L 3047 1100 
L 3047 0 
L 2419 0 
L 2419 1100 
L 313 1100 
L 313 1709 
L 2253 4666 
z
" transform="scale(0.015625)"/>
       </defs>
       <use xlink:href="#DejaVuSans-34"/>
      </g>
     </g>
    </g>
    <g id="xtick_5">
     <g id="line2d_5">
      <g>
       <use xlink:href="#me6b2a32a1d" x="156.720274" y="550.044448" style="stroke: #000000; stroke-width: 0.8"/>
      </g>
     </g>
     <g id="text_5">
      <!-- 5 -->
      <g transform="translate(153.539024 564.642885) scale(0.1 -0.1)">
       <defs>
        <path id="DejaVuSans-35" d="M 691 4666 
L 3169 4666 
L 3169 4134 
L 1269 4134 
L 1269 2991 
Q 1406 3038 1543 3061 
Q 1681 3084 1819 3084 
Q 2600 3084 3056 2656 
Q 3513 2228 3513 1497 
Q 3513 744 3044 326 
Q 2575 -91 1722 -91 
Q 1428 -91 1123 -41 
Q 819 9 494 109 
L 494 744 
Q 775 591 1075 516 
Q 1375 441 1709 441 
Q 2250 441 2565 725 
Q 2881 1009 2881 1497 
Q 2881 1984 2565 2268 
Q 2250 2553 1709 2553 
Q 1456 2553 1204 2497 
Q 953 2441 691 2322 
L 691 4666 
z
" transform="scale(0.015625)"/>
       </defs>
       <use xlink:href="#DejaVuSans-35"/>
      </g>
     </g>
    </g>
    <g id="xtick_6">
     <g id="line2d_6">
      <g>
       <use xlink:href="#me6b2a32a1d" x="178.115104" y="550.044448" style="stroke: #000000; stroke-width: 0.8"/>
      </g>
     </g>
     <g id="text_6">
      <!-- 6 -->
      <g transform="translate(174.933854 564.642885) scale(0.1 -0.1)">
       <defs>
        <path id="DejaVuSans-36" d="M 2113 2584 
Q 1688 2584 1439 2293 
Q 1191 2003 1191 1497 
Q 1191 994 1439 701 
Q 1688 409 2113 409 
Q 2538 409 2786 701 
Q 3034 994 3034 1497 
Q 3034 2003 2786 2293 
Q 2538 2584 2113 2584 
z
M 3366 4563 
L 3366 3988 
Q 3128 4100 2886 4159 
Q 2644 4219 2406 4219 
Q 1781 4219 1451 3797 
Q 1122 3375 1075 2522 
Q 1259 2794 1537 2939 
Q 1816 3084 2150 3084 
Q 2853 3084 3261 2657 
Q 3669 2231 3669 1497 
Q 3669 778 3244 343 
Q 2819 -91 2113 -91 
Q 1303 -91 875 529 
Q 447 1150 447 2328 
Q 447 3434 972 4092 
Q 1497 4750 2381 4750 
Q 2619 4750 2861 4703 
Q 3103 4656 3366 4563 
z
" transform="scale(0.015625)"/>
       </defs>
       <use xlink:href="#DejaVuSans-36"/>
      </g>
     </g>
    </g>
    <g id="xtick_7">
     <g id="line2d_7">
      <g>
       <use xlink:href="#me6b2a32a1d" x="199.509934" y="550.044448" style="stroke: #000000; stroke-width: 0.8"/>
      </g>
     </g>
     <g id="text_7">
      <!-- 7 -->
      <g transform="translate(196.328684 564.642885) scale(0.1 -0.1)">
       <defs>
        <path id="DejaVuSans-37" d="M 525 4666 
L 3525 4666 
L 3525 4397 
L 1831 0 
L 1172 0 
L 2766 4134 
L 525 4134 
L 525 4666 
z
" transform="scale(0.015625)"/>
       </defs>
       <use xlink:href="#DejaVuSans-37"/>
      </g>
     </g>
    </g>
    <g id="xtick_8">
     <g id="line2d_8">
      <g>
       <use xlink:href="#me6b2a32a1d" x="220.904764" y="550.044448" style="stroke: #000000; stroke-width: 0.8"/>
      </g>
     </g>
     <g id="text_8">
      <!-- 8 -->
      <g transform="translate(217.723514 564.642885) scale(0.1 -0.1)">
       <defs>
        <path id="DejaVuSans-38" d="M 2034 2216 
Q 1584 2216 1326 1975 
Q 1069 1734 1069 1313 
Q 1069 891 1326 650 
Q 1584 409 2034 409 
Q 2484 409 2743 651 
Q 3003 894 3003 1313 
Q 3003 1734 2745 1975 
Q 2488 2216 2034 2216 
z
M 1403 2484 
Q 997 2584 770 2862 
Q 544 3141 544 3541 
Q 544 4100 942 4425 
Q 1341 4750 2034 4750 
Q 2731 4750 3128 4425 
Q 3525 4100 3525 3541 
Q 3525 3141 3298 2862 
Q 3072 2584 2669 2484 
Q 3125 2378 3379 2068 
Q 3634 1759 3634 1313 
Q 3634 634 3220 271 
Q 2806 -91 2034 -91 
Q 1263 -91 848 271 
Q 434 634 434 1313 
Q 434 1759 690 2068 
Q 947 2378 1403 2484 
z
M 1172 3481 
Q 1172 3119 1398 2916 
Q 1625 2713 2034 2713 
Q 2441 2713 2670 2916 
Q 2900 3119 2900 3481 
Q 2900 3844 2670 4047 
Q 2441 4250 2034 4250 
Q 1625 4250 1398 4047 
Q 1172 3844 1172 3481 
z
" transform="scale(0.015625)"/>
       </defs>
       <use xlink:href="#DejaVuSans-38"/>
      </g>
     </g>
    </g>
    <g id="xtick_9">
     <g id="line2d_9">
      <g>
       <use xlink:href="#me6b2a32a1d" x="242.299594" y="550.044448" style="stroke: #000000; stroke-width: 0.8"/>
      </g>
     </g>
     <g id="text_9">
      <!-- 9 -->
      <g transform="translate(239.118344 564.642885) scale(0.1 -0.1)">
       <defs>
        <path id="DejaVuSans-39" d="M 703 97 
L 703 672 
Q 941 559 1184 500 
Q 1428 441 1663 441 
Q 2288 441 2617 861 
Q 2947 1281 2994 2138 
Q 2813 1869 2534 1725 
Q 2256 1581 1919 1581 
Q 1219 1581 811 2004 
Q 403 2428 403 3163 
Q 403 3881 828 4315 
Q 1253 4750 1959 4750 
Q 2769 4750 3195 4129 
Q 3622 3509 3622 2328 
Q 3622 1225 3098 567 
Q 2575 -91 1691 -91 
Q 1453 -91 1209 -44 
Q 966 3 703 97 
z
M 1959 2075 
Q 2384 2075 2632 2365 
Q 2881 2656 2881 3163 
Q 2881 3666 2632 3958 
Q 2384 4250 1959 4250 
Q 1534 4250 1286 3958 
Q 1038 3666 1038 3163 
Q 1038 2656 1286 2365 
Q 1534 2075 1959 2075 
z
" transform="scale(0.015625)"/>
       </defs>
       <use xlink:href="#DejaVuSans-39"/>
      </g>
     </g>
    </g>
    <g id="xtick_10">
     <g id="line2d_10">
      <g>
       <use xlink:href="#me6b2a32a1d" x="263.694424" y="550.044448" style="stroke: #000000; stroke-width: 0.8"/>
      </g>
     </g>
     <g id="text_10">
      <!-- 10 -->
      <g transform="translate(257.331924 564.642885) scale(0.1 -0.1)">
       <defs>
        <path id="DejaVuSans-30" d="M 2034 4250 
Q 1547 4250 1301 3770 
Q 1056 3291 1056 2328 
Q 1056 1369 1301 889 
Q 1547 409 2034 409 
Q 2525 409 2770 889 
Q 3016 1369 3016 2328 
Q 3016 3291 2770 3770 
Q 2525 4250 2034 4250 
z
M 2034 4750 
Q 2819 4750 3233 4129 
Q 3647 3509 3647 2328 
Q 3647 1150 3233 529 
Q 2819 -91 2034 -91 
Q 1250 -91 836 529 
Q 422 1150 422 2328 
Q 422 3509 836 4129 
Q 1250 4750 2034 4750 
z
" transform="scale(0.015625)"/>
       </defs>
       <use xlink:href="#DejaVuSans-31"/>
       <use xlink:href="#DejaVuSans-30" x="63.623047"/>
      </g>
     </g>
    </g>
    <g id="xtick_11">
     <g id="line2d_11">
      <g>
       <use xlink:href="#me6b2a32a1d" x="285.089254" y="550.044448" style="stroke: #000000; stroke-width: 0.8"/>
      </g>
     </g>
     <g id="text_11">
      <!-- 11 -->
      <g transform="translate(278.726754 564.642885) scale(0.1 -0.1)">
       <use xlink:href="#DejaVuSans-31"/>
       <use xlink:href="#DejaVuSans-31" x="63.623047"/>
      </g>
     </g>
    </g>
    <g id="xtick_12">
     <g id="line2d_12">
      <g>
       <use xlink:href="#me6b2a32a1d" x="306.484084" y="550.044448" style="stroke: #000000; stroke-width: 0.8"/>
      </g>
     </g>
     <g id="text_12">
      <!-- 12 -->
      <g transform="translate(300.121584 564.642885) scale(0.1 -0.1)">
       <use xlink:href="#DejaVuSans-31"/>
       <use xlink:href="#DejaVuSans-32" x="63.623047"/>
      </g>
     </g>
    </g>
    <g id="xtick_13">
     <g id="line2d_13">
      <g>
       <use xlink:href="#me6b2a32a1d" x="327.878914" y="550.044448" style="stroke: #000000; stroke-width: 0.8"/>
      </g>
     </g>
     <g id="text_13">
      <!-- 13 -->
      <g transform="translate(321.516414 564.642885) scale(0.1 -0.1)">
       <use xlink:href="#DejaVuSans-31"/>
       <use xlink:href="#DejaVuSans-33" x="63.623047"/>
      </g>
     </g>
    </g>
    <g id="xtick_14">
     <g id="line2d_14">
      <g>
       <use xlink:href="#me6b2a32a1d" x="349.273744" y="550.044448" style="stroke: #000000; stroke-width: 0.8"/>
      </g>
     </g>
     <g id="text_14">
      <!-- 14 -->
      <g transform="translate(342.911244 564.642885) scale(0.1 -0.1)">
       <use xlink:href="#DejaVuSans-31"/>
       <use xlink:href="#DejaVuSans-34" x="63.623047"/>
      </g>
     </g>
    </g>
    <g id="xtick_15">
     <g id="line2d_15">
      <g>
       <use xlink:href="#me6b2a32a1d" x="370.668574" y="550.044448" style="stroke: #000000; stroke-width: 0.8"/>
      </g>
     </g>
     <g id="text_15">
      <!-- 15 -->
      <g transform="translate(364.306074 564.642885) scale(0.1 -0.1)">
       <use xlink:href="#DejaVuSans-31"/>
       <use xlink:href="#DejaVuSans-35" x="63.623047"/>
      </g>
     </g>
    </g>
    <g id="xtick_16">
     <g id="line2d_16">
      <g>
       <use xlink:href="#me6b2a32a1d" x="392.063404" y="550.044448" style="stroke: #000000; stroke-width: 0.8"/>
      </g>
     </g>
     <g id="text_16">
      <!-- 16 -->
      <g transform="translate(385.700904 564.642885) scale(0.1 -0.1)">
       <use xlink:href="#DejaVuSans-31"/>
       <use xlink:href="#DejaVuSans-36" x="63.623047"/>
      </g>
     </g>
    </g>
    <g id="xtick_17">
     <g id="line2d_17">
      <g>
       <use xlink:href="#me6b2a32a1d" x="413.458234" y="550.044448" style="stroke: #000000; stroke-width: 0.8"/>
      </g>
     </g>
     <g id="text_17">
      <!-- 17 -->
      <g transform="translate(407.095734 564.642885) scale(0.1 -0.1)">
       <use xlink:href="#DejaVuSans-31"/>
       <use xlink:href="#DejaVuSans-37" x="63.623047"/>
      </g>
     </g>
    </g>
    <g id="xtick_18">
     <g id="line2d_18">
      <g>
       <use xlink:href="#me6b2a32a1d" x="434.853064" y="550.044448" style="stroke: #000000; stroke-width: 0.8"/>
      </g>
     </g>
     <g id="text_18">
      <!-- 18 -->
      <g transform="translate(428.490564 564.642885) scale(0.1 -0.1)">
       <use xlink:href="#DejaVuSans-31"/>
       <use xlink:href="#DejaVuSans-38" x="63.623047"/>
      </g>
     </g>
    </g>
    <g id="xtick_19">
     <g id="line2d_19">
      <g>
       <use xlink:href="#me6b2a32a1d" x="456.247894" y="550.044448" style="stroke: #000000; stroke-width: 0.8"/>
      </g>
     </g>
     <g id="text_19">
      <!-- 19 -->
      <g transform="translate(449.885394 564.642885) scale(0.1 -0.1)">
       <use xlink:href="#DejaVuSans-31"/>
       <use xlink:href="#DejaVuSans-39" x="63.623047"/>
      </g>
     </g>
    </g>
    <g id="xtick_20">
     <g id="line2d_20">
      <g>
       <use xlink:href="#me6b2a32a1d" x="477.642724" y="550.044448" style="stroke: #000000; stroke-width: 0.8"/>
      </g>
     </g>
     <g id="text_20">
      <!-- 20 -->
      <g transform="translate(471.280224 564.642885) scale(0.1 -0.1)">
       <use xlink:href="#DejaVuSans-32"/>
       <use xlink:href="#DejaVuSans-30" x="63.623047"/>
      </g>
     </g>
    </g>
    <g id="text_21">
     <!-- Number of clusters (K) -->
     <g transform="translate(189.699261 582.120229) scale(0.15 -0.15)">
      <defs>
       <path id="DejaVuSans-4e" d="M 628 4666 
L 1478 4666 
L 3547 763 
L 3547 4666 
L 4159 4666 
L 4159 0 
L 3309 0 
L 1241 3903 
L 1241 0 
L 628 0 
L 628 4666 
z
" transform="scale(0.015625)"/>
       <path id="DejaVuSans-75" d="M 544 1381 
L 544 3500 
L 1119 3500 
L 1119 1403 
Q 1119 906 1312 657 
Q 1506 409 1894 409 
Q 2359 409 2629 706 
Q 2900 1003 2900 1516 
L 2900 3500 
L 3475 3500 
L 3475 0 
L 2900 0 
L 2900 538 
Q 2691 219 2414 64 
Q 2138 -91 1772 -91 
Q 1169 -91 856 284 
Q 544 659 544 1381 
z
M 1991 3584 
L 1991 3584 
z
" transform="scale(0.015625)"/>
       <path id="DejaVuSans-6d" d="M 3328 2828 
Q 3544 3216 3844 3400 
Q 4144 3584 4550 3584 
Q 5097 3584 5394 3201 
Q 5691 2819 5691 2113 
L 5691 0 
L 5113 0 
L 5113 2094 
Q 5113 2597 4934 2840 
Q 4756 3084 4391 3084 
Q 3944 3084 3684 2787 
Q 3425 2491 3425 1978 
L 3425 0 
L 2847 0 
L 2847 2094 
Q 2847 2600 2669 2842 
Q 2491 3084 2119 3084 
Q 1678 3084 1418 2786 
Q 1159 2488 1159 1978 
L 1159 0 
L 581 0 
L 581 3500 
L 1159 3500 
L 1159 2956 
Q 1356 3278 1631 3431 
Q 1906 3584 2284 3584 
Q 2666 3584 2933 3390 
Q 3200 3197 3328 2828 
z
" transform="scale(0.015625)"/>
       <path id="DejaVuSans-62" d="M 3116 1747 
Q 3116 2381 2855 2742 
Q 2594 3103 2138 3103 
Q 1681 3103 1420 2742 
Q 1159 2381 1159 1747 
Q 1159 1113 1420 752 
Q 1681 391 2138 391 
Q 2594 391 2855 752 
Q 3116 1113 3116 1747 
z
M 1159 2969 
Q 1341 3281 1617 3432 
Q 1894 3584 2278 3584 
Q 2916 3584 3314 3078 
Q 3713 2572 3713 1747 
Q 3713 922 3314 415 
Q 2916 -91 2278 -91 
Q 1894 -91 1617 61 
Q 1341 213 1159 525 
L 1159 0 
L 581 0 
L 581 4863 
L 1159 4863 
L 1159 2969 
z
" transform="scale(0.015625)"/>
       <path id="DejaVuSans-65" d="M 3597 1894 
L 3597 1613 
L 953 1613 
Q 991 1019 1311 708 
Q 1631 397 2203 397 
Q 2534 397 2845 478 
Q 3156 559 3463 722 
L 3463 178 
Q 3153 47 2828 -22 
Q 2503 -91 2169 -91 
Q 1331 -91 842 396 
Q 353 884 353 1716 
Q 353 2575 817 3079 
Q 1281 3584 2069 3584 
Q 2775 3584 3186 3129 
Q 3597 2675 3597 1894 
z
M 3022 2063 
Q 3016 2534 2758 2815 
Q 2500 3097 2075 3097 
Q 1594 3097 1305 2825 
Q 1016 2553 972 2059 
L 3022 2063 
z
" transform="scale(0.015625)"/>
       <path id="DejaVuSans-72" d="M 2631 2963 
Q 2534 3019 2420 3045 
Q 2306 3072 2169 3072 
Q 1681 3072 1420 2755 
Q 1159 2438 1159 1844 
L 1159 0 
L 581 0 
L 581 3500 
L 1159 3500 
L 1159 2956 
Q 1341 3275 1631 3429 
Q 1922 3584 2338 3584 
Q 2397 3584 2469 3576 
Q 2541 3569 2628 3553 
L 2631 2963 
z
" transform="scale(0.015625)"/>
       <path id="DejaVuSans-20" transform="scale(0.015625)"/>
       <path id="DejaVuSans-6f" d="M 1959 3097 
Q 1497 3097 1228 2736 
Q 959 2375 959 1747 
Q 959 1119 1226 758 
Q 1494 397 1959 397 
Q 2419 397 2687 759 
Q 2956 1122 2956 1747 
Q 2956 2369 2687 2733 
Q 2419 3097 1959 3097 
z
M 1959 3584 
Q 2709 3584 3137 3096 
Q 3566 2609 3566 1747 
Q 3566 888 3137 398 
Q 2709 -91 1959 -91 
Q 1206 -91 779 398 
Q 353 888 353 1747 
Q 353 2609 779 3096 
Q 1206 3584 1959 3584 
z
" transform="scale(0.015625)"/>
       <path id="DejaVuSans-66" d="M 2375 4863 
L 2375 4384 
L 1825 4384 
Q 1516 4384 1395 4259 
Q 1275 4134 1275 3809 
L 1275 3500 
L 2222 3500 
L 2222 3053 
L 1275 3053 
L 1275 0 
L 697 0 
L 697 3053 
L 147 3053 
L 147 3500 
L 697 3500 
L 697 3744 
Q 697 4328 969 4595 
Q 1241 4863 1831 4863 
L 2375 4863 
z
" transform="scale(0.015625)"/>
       <path id="DejaVuSans-63" d="M 3122 3366 
L 3122 2828 
Q 2878 2963 2633 3030 
Q 2388 3097 2138 3097 
Q 1578 3097 1268 2742 
Q 959 2388 959 1747 
Q 959 1106 1268 751 
Q 1578 397 2138 397 
Q 2388 397 2633 464 
Q 2878 531 3122 666 
L 3122 134 
Q 2881 22 2623 -34 
Q 2366 -91 2075 -91 
Q 1284 -91 818 406 
Q 353 903 353 1747 
Q 353 2603 823 3093 
Q 1294 3584 2113 3584 
Q 2378 3584 2631 3529 
Q 2884 3475 3122 3366 
z
" transform="scale(0.015625)"/>
       <path id="DejaVuSans-6c" d="M 603 4863 
L 1178 4863 
L 1178 0 
L 603 0 
L 603 4863 
z
" transform="scale(0.015625)"/>
       <path id="DejaVuSans-73" d="M 2834 3397 
L 2834 2853 
Q 2591 2978 2328 3040 
Q 2066 3103 1784 3103 
Q 1356 3103 1142 2972 
Q 928 2841 928 2578 
Q 928 2378 1081 2264 
Q 1234 2150 1697 2047 
L 1894 2003 
Q 2506 1872 2764 1633 
Q 3022 1394 3022 966 
Q 3022 478 2636 193 
Q 2250 -91 1575 -91 
Q 1294 -91 989 -36 
Q 684 19 347 128 
L 347 722 
Q 666 556 975 473 
Q 1284 391 1588 391 
Q 1994 391 2212 530 
Q 2431 669 2431 922 
Q 2431 1156 2273 1281 
Q 2116 1406 1581 1522 
L 1381 1569 
Q 847 1681 609 1914 
Q 372 2147 372 2553 
Q 372 3047 722 3315 
Q 1072 3584 1716 3584 
Q 2034 3584 2315 3537 
Q 2597 3491 2834 3397 
z
" transform="scale(0.015625)"/>
       <path id="DejaVuSans-74" d="M 1172 4494 
L 1172 3500 
L 2356 3500 
L 2356 3053 
L 1172 3053 
L 1172 1153 
Q 1172 725 1289 603 
Q 1406 481 1766 481 
L 2356 481 
L 2356 0 
L 1766 0 
Q 1100 0 847 248 
Q 594 497 594 1153 
L 594 3053 
L 172 3053 
L 172 3500 
L 594 3500 
L 594 4494 
L 1172 4494 
z
" transform="scale(0.015625)"/>
       <path id="DejaVuSans-28" d="M 1984 4856 
Q 1566 4138 1362 3434 
Q 1159 2731 1159 2009 
Q 1159 1288 1364 580 
Q 1569 -128 1984 -844 
L 1484 -844 
Q 1016 -109 783 600 
Q 550 1309 550 2009 
Q 550 2706 781 3412 
Q 1013 4119 1484 4856 
L 1984 4856 
z
" transform="scale(0.015625)"/>
       <path id="DejaVuSans-4b" d="M 628 4666 
L 1259 4666 
L 1259 2694 
L 3353 4666 
L 4166 4666 
L 1850 2491 
L 4331 0 
L 3500 0 
L 1259 2247 
L 1259 0 
L 628 0 
L 628 4666 
z
" transform="scale(0.015625)"/>
       <path id="DejaVuSans-29" d="M 513 4856 
L 1013 4856 
Q 1481 4119 1714 3412 
Q 1947 2706 1947 2009 
Q 1947 1309 1714 600 
Q 1481 -109 1013 -844 
L 513 -844 
Q 928 -128 1133 580 
Q 1338 1288 1338 2009 
Q 1338 2731 1133 3434 
Q 928 4138 513 4856 
z
" transform="scale(0.015625)"/>
      </defs>
      <use xlink:href="#DejaVuSans-4e"/>
      <use xlink:href="#DejaVuSans-75" x="74.804688"/>
      <use xlink:href="#DejaVuSans-6d" x="138.183594"/>
      <use xlink:href="#DejaVuSans-62" x="235.595703"/>
      <use xlink:href="#DejaVuSans-65" x="299.072266"/>
      <use xlink:href="#DejaVuSans-72" x="360.595703"/>
      <use xlink:href="#DejaVuSans-20" x="401.708984"/>
      <use xlink:href="#DejaVuSans-6f" x="433.496094"/>
      <use xlink:href="#DejaVuSans-66" x="494.677734"/>
      <use xlink:href="#DejaVuSans-20" x="529.882812"/>
      <use xlink:href="#DejaVuSans-63" x="561.669922"/>
      <use xlink:href="#DejaVuSans-6c" x="616.650391"/>
      <use xlink:href="#DejaVuSans-75" x="644.433594"/>
      <use xlink:href="#DejaVuSans-73" x="707.8125"/>
      <use xlink:href="#DejaVuSans-74" x="759.912109"/>
      <use xlink:href="#DejaVuSans-65" x="799.121094"/>
      <use xlink:href="#DejaVuSans-72" x="860.644531"/>
      <use xlink:href="#DejaVuSans-73" x="901.757812"/>
      <use xlink:href="#DejaVuSans-20" x="953.857422"/>
      <use xlink:href="#DejaVuSans-28" x="985.644531"/>
      <use xlink:href="#DejaVuSans-4b" x="1024.658203"/>
      <use xlink:href="#DejaVuSans-29" x="1090.234375"/>
     </g>
    </g>
   </g>
   <g id="matplotlib.axis_2">
    <g id="ytick_1">
     <g id="line2d_21">
      <defs>
       <path id="m0b79ec213a" d="M 0 0 
L -3.5 0 
" style="stroke: #000000; stroke-width: 0.8"/>
      </defs>
      <g>
       <use xlink:href="#m0b79ec213a" x="50.815865" y="539.661327" style="stroke: #000000; stroke-width: 0.8"/>
      </g>
     </g>
     <g id="text_22">
      <!-- 8.0 -->
      <g transform="translate(27.91274 543.460546) scale(0.1 -0.1)">
       <defs>
        <path id="DejaVuSans-2e" d="M 684 794 
L 1344 794 
L 1344 0 
L 684 0 
L 684 794 
z
" transform="scale(0.015625)"/>
       </defs>
       <use xlink:href="#DejaVuSans-38"/>
       <use xlink:href="#DejaVuSans-2e" x="63.623047"/>
       <use xlink:href="#DejaVuSans-30" x="95.410156"/>
      </g>
     </g>
    </g>
    <g id="ytick_2">
     <g id="line2d_22">
      <g>
       <use xlink:href="#m0b79ec213a" x="50.815865" y="476.462939" style="stroke: #000000; stroke-width: 0.8"/>
      </g>
     </g>
     <g id="text_23">
      <!-- 8.5 -->
      <g transform="translate(27.91274 480.262158) scale(0.1 -0.1)">
       <use xlink:href="#DejaVuSans-38"/>
       <use xlink:href="#DejaVuSans-2e" x="63.623047"/>
       <use xlink:href="#DejaVuSans-35" x="95.410156"/>
      </g>
     </g>
    </g>
    <g id="ytick_3">
     <g id="line2d_23">
      <g>
       <use xlink:href="#m0b79ec213a" x="50.815865" y="413.264551" style="stroke: #000000; stroke-width: 0.8"/>
      </g>
     </g>
     <g id="text_24">
      <!-- 9.0 -->
      <g transform="translate(27.91274 417.063769) scale(0.1 -0.1)">
       <use xlink:href="#DejaVuSans-39"/>
       <use xlink:href="#DejaVuSans-2e" x="63.623047"/>
       <use xlink:href="#DejaVuSans-30" x="95.410156"/>
      </g>
     </g>
    </g>
    <g id="ytick_4">
     <g id="line2d_24">
      <g>
       <use xlink:href="#m0b79ec213a" x="50.815865" y="350.066162" style="stroke: #000000; stroke-width: 0.8"/>
      </g>
     </g>
     <g id="text_25">
      <!-- 9.5 -->
      <g transform="translate(27.91274 353.865381) scale(0.1 -0.1)">
       <use xlink:href="#DejaVuSans-39"/>
       <use xlink:href="#DejaVuSans-2e" x="63.623047"/>
       <use xlink:href="#DejaVuSans-35" x="95.410156"/>
      </g>
     </g>
    </g>
    <g id="ytick_5">
     <g id="line2d_25">
      <g>
       <use xlink:href="#m0b79ec213a" x="50.815865" y="286.867774" style="stroke: #000000; stroke-width: 0.8"/>
      </g>
     </g>
     <g id="text_26">
      <!-- 10.0 -->
      <g transform="translate(21.55024 290.666993) scale(0.1 -0.1)">
       <use xlink:href="#DejaVuSans-31"/>
       <use xlink:href="#DejaVuSans-30" x="63.623047"/>
       <use xlink:href="#DejaVuSans-2e" x="127.246094"/>
       <use xlink:href="#DejaVuSans-30" x="159.033203"/>
      </g>
     </g>
    </g>
    <g id="ytick_6">
     <g id="line2d_26">
      <g>
       <use xlink:href="#m0b79ec213a" x="50.815865" y="223.669386" style="stroke: #000000; stroke-width: 0.8"/>
      </g>
     </g>
     <g id="text_27">
      <!-- 10.5 -->
      <g transform="translate(21.55024 227.468604) scale(0.1 -0.1)">
       <use xlink:href="#DejaVuSans-31"/>
       <use xlink:href="#DejaVuSans-30" x="63.623047"/>
       <use xlink:href="#DejaVuSans-2e" x="127.246094"/>
       <use xlink:href="#DejaVuSans-35" x="159.033203"/>
      </g>
     </g>
    </g>
    <g id="ytick_7">
     <g id="line2d_27">
      <g>
       <use xlink:href="#m0b79ec213a" x="50.815865" y="160.470997" style="stroke: #000000; stroke-width: 0.8"/>
      </g>
     </g>
     <g id="text_28">
      <!-- 11.0 -->
      <g transform="translate(21.55024 164.270216) scale(0.1 -0.1)">
       <use xlink:href="#DejaVuSans-31"/>
       <use xlink:href="#DejaVuSans-31" x="63.623047"/>
       <use xlink:href="#DejaVuSans-2e" x="127.246094"/>
       <use xlink:href="#DejaVuSans-30" x="159.033203"/>
      </g>
     </g>
    </g>
    <g id="ytick_8">
     <g id="line2d_28">
      <g>
       <use xlink:href="#m0b79ec213a" x="50.815865" y="97.272609" style="stroke: #000000; stroke-width: 0.8"/>
      </g>
     </g>
     <g id="text_29">
      <!-- 11.5 -->
      <g transform="translate(21.55024 101.071828) scale(0.1 -0.1)">
       <use xlink:href="#DejaVuSans-31"/>
       <use xlink:href="#DejaVuSans-31" x="63.623047"/>
       <use xlink:href="#DejaVuSans-2e" x="127.246094"/>
       <use xlink:href="#DejaVuSans-35" x="159.033203"/>
      </g>
     </g>
    </g>
    <g id="ytick_9">
     <g id="line2d_29">
      <g>
       <use xlink:href="#m0b79ec213a" x="50.815865" y="34.074221" style="stroke: #000000; stroke-width: 0.8"/>
      </g>
     </g>
     <g id="text_30">
      <!-- 12.0 -->
      <g transform="translate(21.55024 37.873439) scale(0.1 -0.1)">
       <use xlink:href="#DejaVuSans-31"/>
       <use xlink:href="#DejaVuSans-32" x="63.623047"/>
       <use xlink:href="#DejaVuSans-2e" x="127.246094"/>
       <use xlink:href="#DejaVuSans-30" x="159.033203"/>
      </g>
     </g>
    </g>
    <g id="text_31">
     <!-- $\ln$(dispersion) -->
     <g transform="translate(14.40024 336.581406) rotate(-90) scale(0.15 -0.15)">
      <defs>
       <path id="DejaVuSans-6e" d="M 3513 2113 
L 3513 0 
L 2938 0 
L 2938 2094 
Q 2938 2591 2744 2837 
Q 2550 3084 2163 3084 
Q 1697 3084 1428 2787 
Q 1159 2491 1159 1978 
L 1159 0 
L 581 0 
L 581 3500 
L 1159 3500 
L 1159 2956 
Q 1366 3272 1645 3428 
Q 1925 3584 2291 3584 
Q 2894 3584 3203 3211 
Q 3513 2838 3513 2113 
z
" transform="scale(0.015625)"/>
       <path id="DejaVuSans-64" d="M 2906 2969 
L 2906 4863 
L 3481 4863 
L 3481 0 
L 2906 0 
L 2906 525 
Q 2725 213 2448 61 
Q 2172 -91 1784 -91 
Q 1150 -91 751 415 
Q 353 922 353 1747 
Q 353 2572 751 3078 
Q 1150 3584 1784 3584 
Q 2172 3584 2448 3432 
Q 2725 3281 2906 2969 
z
M 947 1747 
Q 947 1113 1208 752 
Q 1469 391 1925 391 
Q 2381 391 2643 752 
Q 2906 1113 2906 1747 
Q 2906 2381 2643 2742 
Q 2381 3103 1925 3103 
Q 1469 3103 1208 2742 
Q 947 2381 947 1747 
z
" transform="scale(0.015625)"/>
       <path id="DejaVuSans-69" d="M 603 3500 
L 1178 3500 
L 1178 0 
L 603 0 
L 603 3500 
z
M 603 4863 
L 1178 4863 
L 1178 4134 
L 603 4134 
L 603 4863 
z
" transform="scale(0.015625)"/>
       <path id="DejaVuSans-70" d="M 1159 525 
L 1159 -1331 
L 581 -1331 
L 581 3500 
L 1159 3500 
L 1159 2969 
Q 1341 3281 1617 3432 
Q 1894 3584 2278 3584 
Q 2916 3584 3314 3078 
Q 3713 2572 3713 1747 
Q 3713 922 3314 415 
Q 2916 -91 2278 -91 
Q 1894 -91 1617 61 
Q 1341 213 1159 525 
z
M 3116 1747 
Q 3116 2381 2855 2742 
Q 2594 3103 2138 3103 
Q 1681 3103 1420 2742 
Q 1159 2381 1159 1747 
Q 1159 1113 1420 752 
Q 1681 391 2138 391 
Q 2594 391 2855 752 
Q 3116 1113 3116 1747 
z
" transform="scale(0.015625)"/>
      </defs>
      <use xlink:href="#DejaVuSans-6c" transform="translate(0 0.015625)"/>
      <use xlink:href="#DejaVuSans-6e" transform="translate(27.783203 0.015625)"/>
      <use xlink:href="#DejaVuSans-28" transform="translate(107.397786 0.015625)"/>
      <use xlink:href="#DejaVuSans-64" transform="translate(146.411458 0.015625)"/>
      <use xlink:href="#DejaVuSans-69" transform="translate(209.88802 0.015625)"/>
      <use xlink:href="#DejaVuSans-73" transform="translate(237.671223 0.015625)"/>
      <use xlink:href="#DejaVuSans-70" transform="translate(289.770833 0.015625)"/>
      <use xlink:href="#DejaVuSans-65" transform="translate(353.247395 0.015625)"/>
      <use xlink:href="#DejaVuSans-72" transform="translate(414.770833 0.015625)"/>
      <use xlink:href="#DejaVuSans-73" transform="translate(455.884114 0.015625)"/>
      <use xlink:href="#DejaVuSans-69" transform="translate(507.983723 0.015625)"/>
      <use xlink:href="#DejaVuSans-6f" transform="translate(535.766926 0.015625)"/>
      <use xlink:href="#DejaVuSans-6e" transform="translate(596.948567 0.015625)"/>
      <use xlink:href="#DejaVuSans-29" transform="translate(660.327473 0.015625)"/>
     </g>
    </g>
   </g>
   <g id="line2d_30">
    <path d="M 71.140954 42.296823 
L 92.535784 179.11502 
L 113.930614 262.115947 
L 135.325444 320.293039 
L 156.720274 361.475326 
L 178.115104 392.848714 
L 199.509934 417.200912 
L 220.904764 436.384662 
L 242.299594 451.74434 
L 263.694424 463.937314 
L 285.089254 474.198918 
L 306.484084 482.432442 
L 327.878914 490.467929 
L 349.273744 496.812061 
L 370.668574 502.878219 
L 392.063404 507.753218 
L 413.458234 512.399155 
L 434.853064 518.269703 
L 456.247894 521.937764 
L 477.642724 525.865989 
" clip-path="url(#pb99e4b1cc8)" style="fill: none; stroke: #1f77b4; stroke-width: 1.5; stroke-linecap: square"/>
    <defs>
     <path id="m094bddb872" d="M 0 3 
C 0.795609 3 1.55874 2.683901 2.12132 2.12132 
C 2.683901 1.55874 3 0.795609 3 0 
C 3 -0.795609 2.683901 -1.55874 2.12132 -2.12132 
C 1.55874 -2.683901 0.795609 -3 0 -3 
C -0.795609 -3 -1.55874 -2.683901 -2.12132 -2.12132 
C -2.683901 -1.55874 -3 -0.795609 -3 0 
C -3 0.795609 -2.683901 1.55874 -2.12132 2.12132 
C -1.55874 2.683901 -0.795609 3 0 3 
z
" style="stroke: #1f77b4"/>
    </defs>
    <g clip-path="url(#pb99e4b1cc8)">
     <use xlink:href="#m094bddb872" x="71.140954" y="42.296823" style="fill: #1f77b4; stroke: #1f77b4"/>
     <use xlink:href="#m094bddb872" x="92.535784" y="179.11502" style="fill: #1f77b4; stroke: #1f77b4"/>
     <use xlink:href="#m094bddb872" x="113.930614" y="262.115947" style="fill: #1f77b4; stroke: #1f77b4"/>
     <use xlink:href="#m094bddb872" x="135.325444" y="320.293039" style="fill: #1f77b4; stroke: #1f77b4"/>
     <use xlink:href="#m094bddb872" x="156.720274" y="361.475326" style="fill: #1f77b4; stroke: #1f77b4"/>
     <use xlink:href="#m094bddb872" x="178.115104" y="392.848714" style="fill: #1f77b4; stroke: #1f77b4"/>
     <use xlink:href="#m094bddb872" x="199.509934" y="417.200912" style="fill: #1f77b4; stroke: #1f77b4"/>
     <use xlink:href="#m094bddb872" x="220.904764" y="436.384662" style="fill: #1f77b4; stroke: #1f77b4"/>
     <use xlink:href="#m094bddb872" x="242.299594" y="451.74434" style="fill: #1f77b4; stroke: #1f77b4"/>
     <use xlink:href="#m094bddb872" x="263.694424" y="463.937314" style="fill: #1f77b4; stroke: #1f77b4"/>
     <use xlink:href="#m094bddb872" x="285.089254" y="474.198918" style="fill: #1f77b4; stroke: #1f77b4"/>
     <use xlink:href="#m094bddb872" x="306.484084" y="482.432442" style="fill: #1f77b4; stroke: #1f77b4"/>
     <use xlink:href="#m094bddb872" x="327.878914" y="490.467929" style="fill: #1f77b4; stroke: #1f77b4"/>
     <use xlink:href="#m094bddb872" x="349.273744" y="496.812061" style="fill: #1f77b4; stroke: #1f77b4"/>
     <use xlink:href="#m094bddb872" x="370.668574" y="502.878219" style="fill: #1f77b4; stroke: #1f77b4"/>
     <use xlink:href="#m094bddb872" x="392.063404" y="507.753218" style="fill: #1f77b4; stroke: #1f77b4"/>
     <use xlink:href="#m094bddb872" x="413.458234" y="512.399155" style="fill: #1f77b4; stroke: #1f77b4"/>
     <use xlink:href="#m094bddb872" x="434.853064" y="518.269703" style="fill: #1f77b4; stroke: #1f77b4"/>
     <use xlink:href="#m094bddb872" x="456.247894" y="521.937764" style="fill: #1f77b4; stroke: #1f77b4"/>
     <use xlink:href="#m094bddb872" x="477.642724" y="525.865989" style="fill: #1f77b4; stroke: #1f77b4"/>
    </g>
   </g>
   <g id="line2d_31">
    <path d="M 71.140954 42.296823 
L 92.535784 197.377944 
L 113.930614 275.601677 
L 135.325444 320.571425 
L 156.720274 349.089996 
L 178.115104 368.078683 
L 199.509934 383.05801 
L 220.904764 397.389408 
L 242.299594 410.862605 
L 263.694424 425.977965 
L 285.089254 437.953473 
L 306.484084 453.632914 
L 327.878914 463.233655 
L 349.273744 475.712031 
L 370.668574 483.63465 
L 392.063404 493.085487 
L 413.458234 499.630235 
L 434.853064 507.575718 
L 456.247894 512.880327 
L 477.642724 518.536632 
" clip-path="url(#pb99e4b1cc8)" style="fill: none; stroke: #ff7f0e; stroke-width: 1.5; stroke-linecap: square"/>
    <defs>
     <path id="mbce3ca62f3" d="M 0 3 
C 0.795609 3 1.55874 2.683901 2.12132 2.12132 
C 2.683901 1.55874 3 0.795609 3 0 
C 3 -0.795609 2.683901 -1.55874 2.12132 -2.12132 
C 1.55874 -2.683901 0.795609 -3 0 -3 
C -0.795609 -3 -1.55874 -2.683901 -2.12132 -2.12132 
C -2.683901 -1.55874 -3 -0.795609 -3 0 
C -3 0.795609 -2.683901 1.55874 -2.12132 2.12132 
C -1.55874 2.683901 -0.795609 3 0 3 
z
" style="stroke: #ff7f0e"/>
    </defs>
    <g clip-path="url(#pb99e4b1cc8)">
     <use xlink:href="#mbce3ca62f3" x="71.140954" y="42.296823" style="fill: #ff7f0e; stroke: #ff7f0e"/>
     <use xlink:href="#mbce3ca62f3" x="92.535784" y="197.377944" style="fill: #ff7f0e; stroke: #ff7f0e"/>
     <use xlink:href="#mbce3ca62f3" x="113.930614" y="275.601677" style="fill: #ff7f0e; stroke: #ff7f0e"/>
     <use xlink:href="#mbce3ca62f3" x="135.325444" y="320.571425" style="fill: #ff7f0e; stroke: #ff7f0e"/>
     <use xlink:href="#mbce3ca62f3" x="156.720274" y="349.089996" style="fill: #ff7f0e; stroke: #ff7f0e"/>
     <use xlink:href="#mbce3ca62f3" x="178.115104" y="368.078683" style="fill: #ff7f0e; stroke: #ff7f0e"/>
     <use xlink:href="#mbce3ca62f3" x="199.509934" y="383.05801" style="fill: #ff7f0e; stroke: #ff7f0e"/>
     <use xlink:href="#mbce3ca62f3" x="220.904764" y="397.389408" style="fill: #ff7f0e; stroke: #ff7f0e"/>
     <use xlink:href="#mbce3ca62f3" x="242.299594" y="410.862605" style="fill: #ff7f0e; stroke: #ff7f0e"/>
     <use xlink:href="#mbce3ca62f3" x="263.694424" y="425.977965" style="fill: #ff7f0e; stroke: #ff7f0e"/>
     <use xlink:href="#mbce3ca62f3" x="285.089254" y="437.953473" style="fill: #ff7f0e; stroke: #ff7f0e"/>
     <use xlink:href="#mbce3ca62f3" x="306.484084" y="453.632914" style="fill: #ff7f0e; stroke: #ff7f0e"/>
     <use xlink:href="#mbce3ca62f3" x="327.878914" y="463.233655" style="fill: #ff7f0e; stroke: #ff7f0e"/>
     <use xlink:href="#mbce3ca62f3" x="349.273744" y="475.712031" style="fill: #ff7f0e; stroke: #ff7f0e"/>
     <use xlink:href="#mbce3ca62f3" x="370.668574" y="483.63465" style="fill: #ff7f0e; stroke: #ff7f0e"/>
     <use xlink:href="#mbce3ca62f3" x="392.063404" y="493.085487" style="fill: #ff7f0e; stroke: #ff7f0e"/>
     <use xlink:href="#mbce3ca62f3" x="413.458234" y="499.630235" style="fill: #ff7f0e; stroke: #ff7f0e"/>
     <use xlink:href="#mbce3ca62f3" x="434.853064" y="507.575718" style="fill: #ff7f0e; stroke: #ff7f0e"/>
     <use xlink:href="#mbce3ca62f3" x="456.247894" y="512.880327" style="fill: #ff7f0e; stroke: #ff7f0e"/>
     <use xlink:href="#mbce3ca62f3" x="477.642724" y="518.536632" style="fill: #ff7f0e; stroke: #ff7f0e"/>
    </g>
   </g>
   <g id="patch_3">
    <path d="M 50.815865 550.044448 
L 50.815865 18.118365 
" style="fill: none; stroke: #000000; stroke-width: 0.8; stroke-linejoin: miter; stroke-linecap: square"/>
   </g>
   <g id="patch_4">
    <path d="M 50.815865 550.044448 
L 497.967812 550.044448 
" style="fill: none; stroke: #000000; stroke-width: 0.8; stroke-linejoin: miter; stroke-linecap: square"/>
   </g>
   <g id="legend_1">
    <g id="patch_5">
     <path d="M 410.85375 55.474615 
L 490.967812 55.474615 
Q 492.967812 55.474615 492.967812 53.474615 
L 492.967812 25.118365 
Q 492.967812 23.118365 490.967812 23.118365 
L 410.85375 23.118365 
Q 408.85375 23.118365 408.85375 25.118365 
L 408.85375 53.474615 
Q 408.85375 55.474615 410.85375 55.474615 
z
" style="fill: #ffffff; opacity: 0.8; stroke: #cccccc; stroke-linejoin: miter"/>
    </g>
    <g id="line2d_32">
     <path d="M 412.85375 31.216802 
L 422.85375 31.216802 
L 432.85375 31.216802 
" style="fill: none; stroke: #1f77b4; stroke-width: 1.5; stroke-linecap: square"/>
     <g>
      <use xlink:href="#m094bddb872" x="422.85375" y="31.216802" style="fill: #1f77b4; stroke: #1f77b4"/>
     </g>
    </g>
    <g id="text_32">
     <!-- Observed -->
     <g transform="translate(440.85375 34.716802) scale(0.1 -0.1)">
      <defs>
       <path id="DejaVuSans-4f" d="M 2522 4238 
Q 1834 4238 1429 3725 
Q 1025 3213 1025 2328 
Q 1025 1447 1429 934 
Q 1834 422 2522 422 
Q 3209 422 3611 934 
Q 4013 1447 4013 2328 
Q 4013 3213 3611 3725 
Q 3209 4238 2522 4238 
z
M 2522 4750 
Q 3503 4750 4090 4092 
Q 4678 3434 4678 2328 
Q 4678 1225 4090 567 
Q 3503 -91 2522 -91 
Q 1538 -91 948 565 
Q 359 1222 359 2328 
Q 359 3434 948 4092 
Q 1538 4750 2522 4750 
z
" transform="scale(0.015625)"/>
       <path id="DejaVuSans-76" d="M 191 3500 
L 800 3500 
L 1894 563 
L 2988 3500 
L 3597 3500 
L 2284 0 
L 1503 0 
L 191 3500 
z
" transform="scale(0.015625)"/>
      </defs>
      <use xlink:href="#DejaVuSans-4f"/>
      <use xlink:href="#DejaVuSans-62" x="78.710938"/>
      <use xlink:href="#DejaVuSans-73" x="142.1875"/>
      <use xlink:href="#DejaVuSans-65" x="194.287109"/>
      <use xlink:href="#DejaVuSans-72" x="255.810547"/>
      <use xlink:href="#DejaVuSans-76" x="296.923828"/>
      <use xlink:href="#DejaVuSans-65" x="356.103516"/>
      <use xlink:href="#DejaVuSans-64" x="417.626953"/>
     </g>
    </g>
    <g id="line2d_33">
     <path d="M 412.85375 45.894927 
L 422.85375 45.894927 
L 432.85375 45.894927 
" style="fill: none; stroke: #ff7f0e; stroke-width: 1.5; stroke-linecap: square"/>
     <g>
      <use xlink:href="#mbce3ca62f3" x="422.85375" y="45.894927" style="fill: #ff7f0e; stroke: #ff7f0e"/>
     </g>
    </g>
    <g id="text_33">
     <!-- Expected -->
     <g transform="translate(440.85375 49.394927) scale(0.1 -0.1)">
      <defs>
       <path id="DejaVuSans-45" d="M 628 4666 
L 3578 4666 
L 3578 4134 
L 1259 4134 
L 1259 2753 
L 3481 2753 
L 3481 2222 
L 1259 2222 
L 1259 531 
L 3634 531 
L 3634 0 
L 628 0 
L 628 4666 
z
" transform="scale(0.015625)"/>
       <path id="DejaVuSans-78" d="M 3513 3500 
L 2247 1797 
L 3578 0 
L 2900 0 
L 1881 1375 
L 863 0 
L 184 0 
L 1544 1831 
L 300 3500 
L 978 3500 
L 1906 2253 
L 2834 3500 
L 3513 3500 
z
" transform="scale(0.015625)"/>
      </defs>
      <use xlink:href="#DejaVuSans-45"/>
      <use xlink:href="#DejaVuSans-78" x="63.183594"/>
      <use xlink:href="#DejaVuSans-70" x="122.363281"/>
      <use xlink:href="#DejaVuSans-65" x="185.839844"/>
      <use xlink:href="#DejaVuSans-63" x="247.363281"/>
      <use xlink:href="#DejaVuSans-74" x="302.34375"/>
      <use xlink:href="#DejaVuSans-65" x="341.552734"/>
      <use xlink:href="#DejaVuSans-64" x="403.076172"/>
     </g>
    </g>
   </g>
  </g>
  <g id="axes_2">
   <g id="patch_6">
    <path d="M 557.847813 550.044448 
L 1004.99976 550.044448 
L 1004.99976 18.118365 
L 557.847813 18.118365 
z
" style="fill: #ffffff"/>
   </g>
   <g id="matplotlib.axis_3">
    <g id="xtick_21">
     <g id="line2d_34">
      <g>
       <use xlink:href="#me6b2a32a1d" x="578.172901" y="550.044448" style="stroke: #000000; stroke-width: 0.8"/>
      </g>
     </g>
     <g id="text_34">
      <!-- 1 -->
      <g transform="translate(574.991651 564.642885) scale(0.1 -0.1)">
       <use xlink:href="#DejaVuSans-31"/>
      </g>
     </g>
    </g>
    <g id="xtick_22">
     <g id="line2d_35">
      <g>
       <use xlink:href="#me6b2a32a1d" x="599.567731" y="550.044448" style="stroke: #000000; stroke-width: 0.8"/>
      </g>
     </g>
     <g id="text_35">
      <!-- 2 -->
      <g transform="translate(596.386481 564.642885) scale(0.1 -0.1)">
       <use xlink:href="#DejaVuSans-32"/>
      </g>
     </g>
    </g>
    <g id="xtick_23">
     <g id="line2d_36">
      <g>
       <use xlink:href="#me6b2a32a1d" x="620.962561" y="550.044448" style="stroke: #000000; stroke-width: 0.8"/>
      </g>
     </g>
     <g id="text_36">
      <!-- 3 -->
      <g transform="translate(617.781311 564.642885) scale(0.1 -0.1)">
       <use xlink:href="#DejaVuSans-33"/>
      </g>
     </g>
    </g>
    <g id="xtick_24">
     <g id="line2d_37">
      <g>
       <use xlink:href="#me6b2a32a1d" x="642.357391" y="550.044448" style="stroke: #000000; stroke-width: 0.8"/>
      </g>
     </g>
     <g id="text_37">
      <!-- 4 -->
      <g transform="translate(639.176141 564.642885) scale(0.1 -0.1)">
       <use xlink:href="#DejaVuSans-34"/>
      </g>
     </g>
    </g>
    <g id="xtick_25">
     <g id="line2d_38">
      <g>
       <use xlink:href="#me6b2a32a1d" x="663.752221" y="550.044448" style="stroke: #000000; stroke-width: 0.8"/>
      </g>
     </g>
     <g id="text_38">
      <!-- 5 -->
      <g transform="translate(660.570971 564.642885) scale(0.1 -0.1)">
       <use xlink:href="#DejaVuSans-35"/>
      </g>
     </g>
    </g>
    <g id="xtick_26">
     <g id="line2d_39">
      <g>
       <use xlink:href="#me6b2a32a1d" x="685.147051" y="550.044448" style="stroke: #000000; stroke-width: 0.8"/>
      </g>
     </g>
     <g id="text_39">
      <!-- 6 -->
      <g transform="translate(681.965801 564.642885) scale(0.1 -0.1)">
       <use xlink:href="#DejaVuSans-36"/>
      </g>
     </g>
    </g>
    <g id="xtick_27">
     <g id="line2d_40">
      <g>
       <use xlink:href="#me6b2a32a1d" x="706.541881" y="550.044448" style="stroke: #000000; stroke-width: 0.8"/>
      </g>
     </g>
     <g id="text_40">
      <!-- 7 -->
      <g transform="translate(703.360631 564.642885) scale(0.1 -0.1)">
       <use xlink:href="#DejaVuSans-37"/>
      </g>
     </g>
    </g>
    <g id="xtick_28">
     <g id="line2d_41">
      <g>
       <use xlink:href="#me6b2a32a1d" x="727.936711" y="550.044448" style="stroke: #000000; stroke-width: 0.8"/>
      </g>
     </g>
     <g id="text_41">
      <!-- 8 -->
      <g transform="translate(724.755461 564.642885) scale(0.1 -0.1)">
       <use xlink:href="#DejaVuSans-38"/>
      </g>
     </g>
    </g>
    <g id="xtick_29">
     <g id="line2d_42">
      <g>
       <use xlink:href="#me6b2a32a1d" x="749.331541" y="550.044448" style="stroke: #000000; stroke-width: 0.8"/>
      </g>
     </g>
     <g id="text_42">
      <!-- 9 -->
      <g transform="translate(746.150291 564.642885) scale(0.1 -0.1)">
       <use xlink:href="#DejaVuSans-39"/>
      </g>
     </g>
    </g>
    <g id="xtick_30">
     <g id="line2d_43">
      <g>
       <use xlink:href="#me6b2a32a1d" x="770.726371" y="550.044448" style="stroke: #000000; stroke-width: 0.8"/>
      </g>
     </g>
     <g id="text_43">
      <!-- 10 -->
      <g transform="translate(764.363871 564.642885) scale(0.1 -0.1)">
       <use xlink:href="#DejaVuSans-31"/>
       <use xlink:href="#DejaVuSans-30" x="63.623047"/>
      </g>
     </g>
    </g>
    <g id="xtick_31">
     <g id="line2d_44">
      <g>
       <use xlink:href="#me6b2a32a1d" x="792.121201" y="550.044448" style="stroke: #000000; stroke-width: 0.8"/>
      </g>
     </g>
     <g id="text_44">
      <!-- 11 -->
      <g transform="translate(785.758701 564.642885) scale(0.1 -0.1)">
       <use xlink:href="#DejaVuSans-31"/>
       <use xlink:href="#DejaVuSans-31" x="63.623047"/>
      </g>
     </g>
    </g>
    <g id="xtick_32">
     <g id="line2d_45">
      <g>
       <use xlink:href="#me6b2a32a1d" x="813.516031" y="550.044448" style="stroke: #000000; stroke-width: 0.8"/>
      </g>
     </g>
     <g id="text_45">
      <!-- 12 -->
      <g transform="translate(807.153531 564.642885) scale(0.1 -0.1)">
       <use xlink:href="#DejaVuSans-31"/>
       <use xlink:href="#DejaVuSans-32" x="63.623047"/>
      </g>
     </g>
    </g>
    <g id="xtick_33">
     <g id="line2d_46">
      <g>
       <use xlink:href="#me6b2a32a1d" x="834.910861" y="550.044448" style="stroke: #000000; stroke-width: 0.8"/>
      </g>
     </g>
     <g id="text_46">
      <!-- 13 -->
      <g transform="translate(828.548361 564.642885) scale(0.1 -0.1)">
       <use xlink:href="#DejaVuSans-31"/>
       <use xlink:href="#DejaVuSans-33" x="63.623047"/>
      </g>
     </g>
    </g>
    <g id="xtick_34">
     <g id="line2d_47">
      <g>
       <use xlink:href="#me6b2a32a1d" x="856.305691" y="550.044448" style="stroke: #000000; stroke-width: 0.8"/>
      </g>
     </g>
     <g id="text_47">
      <!-- 14 -->
      <g transform="translate(849.943191 564.642885) scale(0.1 -0.1)">
       <use xlink:href="#DejaVuSans-31"/>
       <use xlink:href="#DejaVuSans-34" x="63.623047"/>
      </g>
     </g>
    </g>
    <g id="xtick_35">
     <g id="line2d_48">
      <g>
       <use xlink:href="#me6b2a32a1d" x="877.700521" y="550.044448" style="stroke: #000000; stroke-width: 0.8"/>
      </g>
     </g>
     <g id="text_48">
      <!-- 15 -->
      <g transform="translate(871.338021 564.642885) scale(0.1 -0.1)">
       <use xlink:href="#DejaVuSans-31"/>
       <use xlink:href="#DejaVuSans-35" x="63.623047"/>
      </g>
     </g>
    </g>
    <g id="xtick_36">
     <g id="line2d_49">
      <g>
       <use xlink:href="#me6b2a32a1d" x="899.095351" y="550.044448" style="stroke: #000000; stroke-width: 0.8"/>
      </g>
     </g>
     <g id="text_49">
      <!-- 16 -->
      <g transform="translate(892.732851 564.642885) scale(0.1 -0.1)">
       <use xlink:href="#DejaVuSans-31"/>
       <use xlink:href="#DejaVuSans-36" x="63.623047"/>
      </g>
     </g>
    </g>
    <g id="xtick_37">
     <g id="line2d_50">
      <g>
       <use xlink:href="#me6b2a32a1d" x="920.490181" y="550.044448" style="stroke: #000000; stroke-width: 0.8"/>
      </g>
     </g>
     <g id="text_50">
      <!-- 17 -->
      <g transform="translate(914.127681 564.642885) scale(0.1 -0.1)">
       <use xlink:href="#DejaVuSans-31"/>
       <use xlink:href="#DejaVuSans-37" x="63.623047"/>
      </g>
     </g>
    </g>
    <g id="xtick_38">
     <g id="line2d_51">
      <g>
       <use xlink:href="#me6b2a32a1d" x="941.885011" y="550.044448" style="stroke: #000000; stroke-width: 0.8"/>
      </g>
     </g>
     <g id="text_51">
      <!-- 18 -->
      <g transform="translate(935.522511 564.642885) scale(0.1 -0.1)">
       <use xlink:href="#DejaVuSans-31"/>
       <use xlink:href="#DejaVuSans-38" x="63.623047"/>
      </g>
     </g>
    </g>
    <g id="xtick_39">
     <g id="line2d_52">
      <g>
       <use xlink:href="#me6b2a32a1d" x="963.279841" y="550.044448" style="stroke: #000000; stroke-width: 0.8"/>
      </g>
     </g>
     <g id="text_52">
      <!-- 19 -->
      <g transform="translate(956.917341 564.642885) scale(0.1 -0.1)">
       <use xlink:href="#DejaVuSans-31"/>
       <use xlink:href="#DejaVuSans-39" x="63.623047"/>
      </g>
     </g>
    </g>
    <g id="xtick_40">
     <g id="line2d_53">
      <g>
       <use xlink:href="#me6b2a32a1d" x="984.674671" y="550.044448" style="stroke: #000000; stroke-width: 0.8"/>
      </g>
     </g>
     <g id="text_53">
      <!-- 20 -->
      <g transform="translate(978.312171 564.642885) scale(0.1 -0.1)">
       <use xlink:href="#DejaVuSans-32"/>
       <use xlink:href="#DejaVuSans-30" x="63.623047"/>
      </g>
     </g>
    </g>
    <g id="text_54">
     <!-- Number of clusters (K) -->
     <g transform="translate(696.731208 582.120229) scale(0.15 -0.15)">
      <use xlink:href="#DejaVuSans-4e"/>
      <use xlink:href="#DejaVuSans-75" x="74.804688"/>
      <use xlink:href="#DejaVuSans-6d" x="138.183594"/>
      <use xlink:href="#DejaVuSans-62" x="235.595703"/>
      <use xlink:href="#DejaVuSans-65" x="299.072266"/>
      <use xlink:href="#DejaVuSans-72" x="360.595703"/>
      <use xlink:href="#DejaVuSans-20" x="401.708984"/>
      <use xlink:href="#DejaVuSans-6f" x="433.496094"/>
      <use xlink:href="#DejaVuSans-66" x="494.677734"/>
      <use xlink:href="#DejaVuSans-20" x="529.882812"/>
      <use xlink:href="#DejaVuSans-63" x="561.669922"/>
      <use xlink:href="#DejaVuSans-6c" x="616.650391"/>
      <use xlink:href="#DejaVuSans-75" x="644.433594"/>
      <use xlink:href="#DejaVuSans-73" x="707.8125"/>
      <use xlink:href="#DejaVuSans-74" x="759.912109"/>
      <use xlink:href="#DejaVuSans-65" x="799.121094"/>
      <use xlink:href="#DejaVuSans-72" x="860.644531"/>
      <use xlink:href="#DejaVuSans-73" x="901.757812"/>
      <use xlink:href="#DejaVuSans-20" x="953.857422"/>
      <use xlink:href="#DejaVuSans-28" x="985.644531"/>
      <use xlink:href="#DejaVuSans-4b" x="1024.658203"/>
      <use xlink:href="#DejaVuSans-29" x="1090.234375"/>
     </g>
    </g>
   </g>
   <g id="matplotlib.axis_4">
    <g id="ytick_10">
     <g id="line2d_54">
      <g>
       <use xlink:href="#m0b79ec213a" x="557.847813" y="475.767182" style="stroke: #000000; stroke-width: 0.8"/>
      </g>
     </g>
     <g id="text_55">
      <!-- −0.1 -->
      <g transform="translate(526.565 479.566401) scale(0.1 -0.1)">
       <defs>
        <path id="DejaVuSans-2212" d="M 678 2272 
L 4684 2272 
L 4684 1741 
L 678 1741 
L 678 2272 
z
" transform="scale(0.015625)"/>
       </defs>
       <use xlink:href="#DejaVuSans-2212"/>
       <use xlink:href="#DejaVuSans-30" x="83.789062"/>
       <use xlink:href="#DejaVuSans-2e" x="147.412109"/>
       <use xlink:href="#DejaVuSans-31" x="179.199219"/>
      </g>
     </g>
    </g>
    <g id="ytick_11">
     <g id="line2d_55">
      <g>
       <use xlink:href="#m0b79ec213a" x="557.847813" y="376.906544" style="stroke: #000000; stroke-width: 0.8"/>
      </g>
     </g>
     <g id="text_56">
      <!-- 0.0 -->
      <g transform="translate(534.944688 380.705762) scale(0.1 -0.1)">
       <use xlink:href="#DejaVuSans-30"/>
       <use xlink:href="#DejaVuSans-2e" x="63.623047"/>
       <use xlink:href="#DejaVuSans-30" x="95.410156"/>
      </g>
     </g>
    </g>
    <g id="ytick_12">
     <g id="line2d_56">
      <g>
       <use xlink:href="#m0b79ec213a" x="557.847813" y="278.045905" style="stroke: #000000; stroke-width: 0.8"/>
      </g>
     </g>
     <g id="text_57">
      <!-- 0.1 -->
      <g transform="translate(534.944688 281.845123) scale(0.1 -0.1)">
       <use xlink:href="#DejaVuSans-30"/>
       <use xlink:href="#DejaVuSans-2e" x="63.623047"/>
       <use xlink:href="#DejaVuSans-31" x="95.410156"/>
      </g>
     </g>
    </g>
    <g id="ytick_13">
     <g id="line2d_57">
      <g>
       <use xlink:href="#m0b79ec213a" x="557.847813" y="179.185266" style="stroke: #000000; stroke-width: 0.8"/>
      </g>
     </g>
     <g id="text_58">
      <!-- 0.2 -->
      <g transform="translate(534.944688 182.984484) scale(0.1 -0.1)">
       <use xlink:href="#DejaVuSans-30"/>
       <use xlink:href="#DejaVuSans-2e" x="63.623047"/>
       <use xlink:href="#DejaVuSans-32" x="95.410156"/>
      </g>
     </g>
    </g>
    <g id="ytick_14">
     <g id="line2d_58">
      <g>
       <use xlink:href="#m0b79ec213a" x="557.847813" y="80.324627" style="stroke: #000000; stroke-width: 0.8"/>
      </g>
     </g>
     <g id="text_59">
      <!-- 0.3 -->
      <g transform="translate(534.944688 84.123846) scale(0.1 -0.1)">
       <use xlink:href="#DejaVuSans-30"/>
       <use xlink:href="#DejaVuSans-2e" x="63.623047"/>
       <use xlink:href="#DejaVuSans-33" x="95.410156"/>
      </g>
     </g>
    </g>
    <g id="text_60">
     <!-- Gap Value -->
     <g transform="translate(519.445469 322.230625) rotate(-90) scale(0.15 -0.15)">
      <defs>
       <path id="DejaVuSans-47" d="M 3809 666 
L 3809 1919 
L 2778 1919 
L 2778 2438 
L 4434 2438 
L 4434 434 
Q 4069 175 3628 42 
Q 3188 -91 2688 -91 
Q 1594 -91 976 548 
Q 359 1188 359 2328 
Q 359 3472 976 4111 
Q 1594 4750 2688 4750 
Q 3144 4750 3555 4637 
Q 3966 4525 4313 4306 
L 4313 3634 
Q 3963 3931 3569 4081 
Q 3175 4231 2741 4231 
Q 1884 4231 1454 3753 
Q 1025 3275 1025 2328 
Q 1025 1384 1454 906 
Q 1884 428 2741 428 
Q 3075 428 3337 486 
Q 3600 544 3809 666 
z
" transform="scale(0.015625)"/>
       <path id="DejaVuSans-61" d="M 2194 1759 
Q 1497 1759 1228 1600 
Q 959 1441 959 1056 
Q 959 750 1161 570 
Q 1363 391 1709 391 
Q 2188 391 2477 730 
Q 2766 1069 2766 1631 
L 2766 1759 
L 2194 1759 
z
M 3341 1997 
L 3341 0 
L 2766 0 
L 2766 531 
Q 2569 213 2275 61 
Q 1981 -91 1556 -91 
Q 1019 -91 701 211 
Q 384 513 384 1019 
Q 384 1609 779 1909 
Q 1175 2209 1959 2209 
L 2766 2209 
L 2766 2266 
Q 2766 2663 2505 2880 
Q 2244 3097 1772 3097 
Q 1472 3097 1187 3025 
Q 903 2953 641 2809 
L 641 3341 
Q 956 3463 1253 3523 
Q 1550 3584 1831 3584 
Q 2591 3584 2966 3190 
Q 3341 2797 3341 1997 
z
" transform="scale(0.015625)"/>
       <path id="DejaVuSans-56" d="M 1831 0 
L 50 4666 
L 709 4666 
L 2188 738 
L 3669 4666 
L 4325 4666 
L 2547 0 
L 1831 0 
z
" transform="scale(0.015625)"/>
      </defs>
      <use xlink:href="#DejaVuSans-47"/>
      <use xlink:href="#DejaVuSans-61" x="77.490234"/>
      <use xlink:href="#DejaVuSans-70" x="138.769531"/>
      <use xlink:href="#DejaVuSans-20" x="202.246094"/>
      <use xlink:href="#DejaVuSans-56" x="234.033203"/>
      <use xlink:href="#DejaVuSans-61" x="294.691406"/>
      <use xlink:href="#DejaVuSans-6c" x="355.970703"/>
      <use xlink:href="#DejaVuSans-75" x="383.753906"/>
      <use xlink:href="#DejaVuSans-65" x="447.132812"/>
     </g>
    </g>
   </g>
   <g id="LineCollection_1">
    <path d="M 578.172901 376.906544 
L 578.172901 376.906544 
" clip-path="url(#p7130538746)" style="fill: none; stroke: #ff0000; stroke-width: 1.5"/>
    <path d="M 599.567731 525.865989 
L 599.567731 513.63229 
" clip-path="url(#p7130538746)" style="fill: none; stroke: #ff0000; stroke-width: 1.5"/>
    <path d="M 620.962561 492.180196 
L 620.962561 472.588879 
" clip-path="url(#p7130538746)" style="fill: none; stroke: #ff0000; stroke-width: 1.5"/>
    <path d="M 642.357391 387.154118 
L 642.357391 371.013724 
" clip-path="url(#p7130538746)" style="fill: none; stroke: #ff0000; stroke-width: 1.5"/>
    <path d="M 663.752221 288.271003 
L 663.752221 271.799538 
" clip-path="url(#p7130538746)" style="fill: none; stroke: #ff0000; stroke-width: 1.5"/>
    <path d="M 685.147051 195.251632 
L 685.147051 171.08622 
" clip-path="url(#p7130538746)" style="fill: none; stroke: #ff0000; stroke-width: 1.5"/>
    <path d="M 706.541881 123.329142 
L 706.541881 96.389771 
" clip-path="url(#p7130538746)" style="fill: none; stroke: #ff0000; stroke-width: 1.5"/>
    <path d="M 727.936711 86.527787 
L 727.936711 57.286247 
" clip-path="url(#p7130538746)" style="fill: none; stroke: #ff0000; stroke-width: 1.5"/>
    <path d="M 749.331541 72.00715 
L 749.331541 42.296823 
" clip-path="url(#p7130538746)" style="fill: none; stroke: #ff0000; stroke-width: 1.5"/>
    <path d="M 770.726371 92.082801 
L 770.726371 67.935799 
" clip-path="url(#p7130538746)" style="fill: none; stroke: #ff0000; stroke-width: 1.5"/>
    <path d="M 792.121201 103.32453 
L 792.121201 83.504513 
" clip-path="url(#p7130538746)" style="fill: none; stroke: #ff0000; stroke-width: 1.5"/>
    <path d="M 813.516031 161.494632 
L 813.516031 141.810181 
" clip-path="url(#p7130538746)" style="fill: none; stroke: #ff0000; stroke-width: 1.5"/>
    <path d="M 834.910861 174.356591 
L 834.910861 153.43334 
" clip-path="url(#p7130538746)" style="fill: none; stroke: #ff0000; stroke-width: 1.5"/>
    <path d="M 856.305691 230.949171 
L 856.305691 192.798156 
" clip-path="url(#p7130538746)" style="fill: none; stroke: #ff0000; stroke-width: 1.5"/>
    <path d="M 877.700521 239.63164 
L 877.700521 213.156116 
" clip-path="url(#p7130538746)" style="fill: none; stroke: #ff0000; stroke-width: 1.5"/>
    <path d="M 899.095351 273.303017 
L 899.095351 251.064148 
" clip-path="url(#p7130538746)" style="fill: none; stroke: #ff0000; stroke-width: 1.5"/>
    <path d="M 920.490181 288.730224 
L 920.490181 265.339861 
" clip-path="url(#p7130538746)" style="fill: none; stroke: #ff0000; stroke-width: 1.5"/>
    <path d="M 941.885011 303.993201 
L 941.885011 282.534896 
" clip-path="url(#p7130538746)" style="fill: none; stroke: #ff0000; stroke-width: 1.5"/>
    <path d="M 963.279841 317.30096 
L 963.279841 294.827509 
" clip-path="url(#p7130538746)" style="fill: none; stroke: #ff0000; stroke-width: 1.5"/>
    <path d="M 984.674671 332.993429 
L 984.674671 306.167216 
" clip-path="url(#p7130538746)" style="fill: none; stroke: #ff0000; stroke-width: 1.5"/>
   </g>
   <g id="line2d_59">
    <path d="M 578.172901 376.906544 
L 599.567731 519.74914 
L 620.962561 482.384537 
L 642.357391 379.083921 
L 663.752221 280.035271 
L 685.147051 183.168926 
L 706.541881 109.859457 
L 727.936711 71.907017 
L 749.331541 57.151987 
L 770.726371 80.0093 
L 792.121201 93.414521 
L 813.516031 151.652406 
L 834.910861 163.894966 
L 856.305691 211.873663 
L 877.700521 226.393878 
L 899.095351 262.183583 
L 920.490181 277.035043 
L 941.885011 293.264049 
L 963.279841 306.064234 
L 984.674671 319.580323 
" clip-path="url(#p7130538746)" style="fill: none; stroke: #ff0000; stroke-width: 1.5; stroke-linecap: square"/>
    <defs>
     <path id="m7a3b44c48d" d="M 0 3 
C 0.795609 3 1.55874 2.683901 2.12132 2.12132 
C 2.683901 1.55874 3 0.795609 3 0 
C 3 -0.795609 2.683901 -1.55874 2.12132 -2.12132 
C 1.55874 -2.683901 0.795609 -3 0 -3 
C -0.795609 -3 -1.55874 -2.683901 -2.12132 -2.12132 
C -2.683901 -1.55874 -3 -0.795609 -3 0 
C -3 0.795609 -2.683901 1.55874 -2.12132 2.12132 
C -1.55874 2.683901 -0.795609 3 0 3 
z
" style="stroke: #ff0000"/>
    </defs>
    <g clip-path="url(#p7130538746)">
     <use xlink:href="#m7a3b44c48d" x="578.172901" y="376.906544" style="fill: #ff0000; stroke: #ff0000"/>
     <use xlink:href="#m7a3b44c48d" x="599.567731" y="519.74914" style="fill: #ff0000; stroke: #ff0000"/>
     <use xlink:href="#m7a3b44c48d" x="620.962561" y="482.384537" style="fill: #ff0000; stroke: #ff0000"/>
     <use xlink:href="#m7a3b44c48d" x="642.357391" y="379.083921" style="fill: #ff0000; stroke: #ff0000"/>
     <use xlink:href="#m7a3b44c48d" x="663.752221" y="280.035271" style="fill: #ff0000; stroke: #ff0000"/>
     <use xlink:href="#m7a3b44c48d" x="685.147051" y="183.168926" style="fill: #ff0000; stroke: #ff0000"/>
     <use xlink:href="#m7a3b44c48d" x="706.541881" y="109.859457" style="fill: #ff0000; stroke: #ff0000"/>
     <use xlink:href="#m7a3b44c48d" x="727.936711" y="71.907017" style="fill: #ff0000; stroke: #ff0000"/>
     <use xlink:href="#m7a3b44c48d" x="749.331541" y="57.151987" style="fill: #ff0000; stroke: #ff0000"/>
     <use xlink:href="#m7a3b44c48d" x="770.726371" y="80.0093" style="fill: #ff0000; stroke: #ff0000"/>
     <use xlink:href="#m7a3b44c48d" x="792.121201" y="93.414521" style="fill: #ff0000; stroke: #ff0000"/>
     <use xlink:href="#m7a3b44c48d" x="813.516031" y="151.652406" style="fill: #ff0000; stroke: #ff0000"/>
     <use xlink:href="#m7a3b44c48d" x="834.910861" y="163.894966" style="fill: #ff0000; stroke: #ff0000"/>
     <use xlink:href="#m7a3b44c48d" x="856.305691" y="211.873663" style="fill: #ff0000; stroke: #ff0000"/>
     <use xlink:href="#m7a3b44c48d" x="877.700521" y="226.393878" style="fill: #ff0000; stroke: #ff0000"/>
     <use xlink:href="#m7a3b44c48d" x="899.095351" y="262.183583" style="fill: #ff0000; stroke: #ff0000"/>
     <use xlink:href="#m7a3b44c48d" x="920.490181" y="277.035043" style="fill: #ff0000; stroke: #ff0000"/>
     <use xlink:href="#m7a3b44c48d" x="941.885011" y="293.264049" style="fill: #ff0000; stroke: #ff0000"/>
     <use xlink:href="#m7a3b44c48d" x="963.279841" y="306.064234" style="fill: #ff0000; stroke: #ff0000"/>
     <use xlink:href="#m7a3b44c48d" x="984.674671" y="319.580323" style="fill: #ff0000; stroke: #ff0000"/>
    </g>
   </g>
   <g id="patch_7">
    <path d="M 557.847813 550.044448 
L 557.847813 18.118365 
" style="fill: none; stroke: #000000; stroke-width: 0.8; stroke-linejoin: miter; stroke-linecap: square"/>
   </g>
   <g id="patch_8">
    <path d="M 557.847813 550.044448 
L 1004.99976 550.044448 
" style="fill: none; stroke: #000000; stroke-width: 0.8; stroke-linejoin: miter; stroke-linecap: square"/>
   </g>
   <g id="patch_9">
    <path d="M 725.936711 125.327387 
Q 725.936711 118.842034 725.936711 112.35668 
L 721.936711 112.35668 
Q 724.936711 106.356013 727.936711 100.355347 
Q 730.936711 106.356013 733.936711 112.35668 
L 729.936711 112.35668 
Q 729.936711 118.842034 729.936711 125.327387 
L 725.936711 125.327387 
z
" style="stroke: #000000; stroke-linecap: round"/>
   </g>
   <g id="text_61">
    <!-- Best K=8 -->
    <g transform="translate(727.936711 134.924246) scale(0.1 -0.1)">
     <defs>
      <path id="DejaVuSans-42" d="M 1259 2228 
L 1259 519 
L 2272 519 
Q 2781 519 3026 730 
Q 3272 941 3272 1375 
Q 3272 1813 3026 2020 
Q 2781 2228 2272 2228 
L 1259 2228 
z
M 1259 4147 
L 1259 2741 
L 2194 2741 
Q 2656 2741 2882 2914 
Q 3109 3088 3109 3444 
Q 3109 3797 2882 3972 
Q 2656 4147 2194 4147 
L 1259 4147 
z
M 628 4666 
L 2241 4666 
Q 2963 4666 3353 4366 
Q 3744 4066 3744 3513 
Q 3744 3084 3544 2831 
Q 3344 2578 2956 2516 
Q 3422 2416 3680 2098 
Q 3938 1781 3938 1306 
Q 3938 681 3513 340 
Q 3088 0 2303 0 
L 628 0 
L 628 4666 
z
" transform="scale(0.015625)"/>
      <path id="DejaVuSans-3d" d="M 678 2906 
L 4684 2906 
L 4684 2381 
L 678 2381 
L 678 2906 
z
M 678 1631 
L 4684 1631 
L 4684 1100 
L 678 1100 
L 678 1631 
z
" transform="scale(0.015625)"/>
     </defs>
     <use xlink:href="#DejaVuSans-42"/>
     <use xlink:href="#DejaVuSans-65" x="68.603516"/>
     <use xlink:href="#DejaVuSans-73" x="130.126953"/>
     <use xlink:href="#DejaVuSans-74" x="182.226562"/>
     <use xlink:href="#DejaVuSans-20" x="221.435547"/>
     <use xlink:href="#DejaVuSans-4b" x="253.222656"/>
     <use xlink:href="#DejaVuSans-3d" x="318.798828"/>
     <use xlink:href="#DejaVuSans-38" x="402.587891"/>
    </g>
   </g>
   <g id="text_62">
    <!-- Gap Statistic method for estimating optimal number of clusters -->
    <g transform="translate(590.905036 12.118365) scale(0.12 -0.12)">
     <defs>
      <path id="DejaVuSans-53" d="M 3425 4513 
L 3425 3897 
Q 3066 4069 2747 4153 
Q 2428 4238 2131 4238 
Q 1616 4238 1336 4038 
Q 1056 3838 1056 3469 
Q 1056 3159 1242 3001 
Q 1428 2844 1947 2747 
L 2328 2669 
Q 3034 2534 3370 2195 
Q 3706 1856 3706 1288 
Q 3706 609 3251 259 
Q 2797 -91 1919 -91 
Q 1588 -91 1214 -16 
Q 841 59 441 206 
L 441 856 
Q 825 641 1194 531 
Q 1563 422 1919 422 
Q 2459 422 2753 634 
Q 3047 847 3047 1241 
Q 3047 1584 2836 1778 
Q 2625 1972 2144 2069 
L 1759 2144 
Q 1053 2284 737 2584 
Q 422 2884 422 3419 
Q 422 4038 858 4394 
Q 1294 4750 2059 4750 
Q 2388 4750 2728 4690 
Q 3069 4631 3425 4513 
z
" transform="scale(0.015625)"/>
      <path id="DejaVuSans-68" d="M 3513 2113 
L 3513 0 
L 2938 0 
L 2938 2094 
Q 2938 2591 2744 2837 
Q 2550 3084 2163 3084 
Q 1697 3084 1428 2787 
Q 1159 2491 1159 1978 
L 1159 0 
L 581 0 
L 581 4863 
L 1159 4863 
L 1159 2956 
Q 1366 3272 1645 3428 
Q 1925 3584 2291 3584 
Q 2894 3584 3203 3211 
Q 3513 2838 3513 2113 
z
" transform="scale(0.015625)"/>
      <path id="DejaVuSans-67" d="M 2906 1791 
Q 2906 2416 2648 2759 
Q 2391 3103 1925 3103 
Q 1463 3103 1205 2759 
Q 947 2416 947 1791 
Q 947 1169 1205 825 
Q 1463 481 1925 481 
Q 2391 481 2648 825 
Q 2906 1169 2906 1791 
z
M 3481 434 
Q 3481 -459 3084 -895 
Q 2688 -1331 1869 -1331 
Q 1566 -1331 1297 -1286 
Q 1028 -1241 775 -1147 
L 775 -588 
Q 1028 -725 1275 -790 
Q 1522 -856 1778 -856 
Q 2344 -856 2625 -561 
Q 2906 -266 2906 331 
L 2906 616 
Q 2728 306 2450 153 
Q 2172 0 1784 0 
Q 1141 0 747 490 
Q 353 981 353 1791 
Q 353 2603 747 3093 
Q 1141 3584 1784 3584 
Q 2172 3584 2450 3431 
Q 2728 3278 2906 2969 
L 2906 3500 
L 3481 3500 
L 3481 434 
z
" transform="scale(0.015625)"/>
     </defs>
     <use xlink:href="#DejaVuSans-47"/>
     <use xlink:href="#DejaVuSans-61" x="77.490234"/>
     <use xlink:href="#DejaVuSans-70" x="138.769531"/>
     <use xlink:href="#DejaVuSans-20" x="202.246094"/>
     <use xlink:href="#DejaVuSans-53" x="234.033203"/>
     <use xlink:href="#DejaVuSans-74" x="297.509766"/>
     <use xlink:href="#DejaVuSans-61" x="336.71875"/>
     <use xlink:href="#DejaVuSans-74" x="397.998047"/>
     <use xlink:href="#DejaVuSans-69" x="437.207031"/>
     <use xlink:href="#DejaVuSans-73" x="464.990234"/>
     <use xlink:href="#DejaVuSans-74" x="517.089844"/>
     <use xlink:href="#DejaVuSans-69" x="556.298828"/>
     <use xlink:href="#DejaVuSans-63" x="584.082031"/>
     <use xlink:href="#DejaVuSans-20" x="639.0625"/>
     <use xlink:href="#DejaVuSans-6d" x="670.849609"/>
     <use xlink:href="#DejaVuSans-65" x="768.261719"/>
     <use xlink:href="#DejaVuSans-74" x="829.785156"/>
     <use xlink:href="#DejaVuSans-68" x="868.994141"/>
     <use xlink:href="#DejaVuSans-6f" x="932.373047"/>
     <use xlink:href="#DejaVuSans-64" x="993.554688"/>
     <use xlink:href="#DejaVuSans-20" x="1057.03125"/>
     <use xlink:href="#DejaVuSans-66" x="1088.818359"/>
     <use xlink:href="#DejaVuSans-6f" x="1124.023438"/>
     <use xlink:href="#DejaVuSans-72" x="1185.205078"/>
     <use xlink:href="#DejaVuSans-20" x="1226.318359"/>
     <use xlink:href="#DejaVuSans-65" x="1258.105469"/>
     <use xlink:href="#DejaVuSans-73" x="1319.628906"/>
     <use xlink:href="#DejaVuSans-74" x="1371.728516"/>
     <use xlink:href="#DejaVuSans-69" x="1410.9375"/>
     <use xlink:href="#DejaVuSans-6d" x="1438.720703"/>
     <use xlink:href="#DejaVuSans-61" x="1536.132812"/>
     <use xlink:href="#DejaVuSans-74" x="1597.412109"/>
     <use xlink:href="#DejaVuSans-69" x="1636.621094"/>
     <use xlink:href="#DejaVuSans-6e" x="1664.404297"/>
     <use xlink:href="#DejaVuSans-67" x="1727.783203"/>
     <use xlink:href="#DejaVuSans-20" x="1791.259766"/>
     <use xlink:href="#DejaVuSans-6f" x="1823.046875"/>
     <use xlink:href="#DejaVuSans-70" x="1884.228516"/>
     <use xlink:href="#DejaVuSans-74" x="1947.705078"/>
     <use xlink:href="#DejaVuSans-69" x="1986.914062"/>
     <use xlink:href="#DejaVuSans-6d" x="2014.697266"/>
     <use xlink:href="#DejaVuSans-61" x="2112.109375"/>
     <use xlink:href="#DejaVuSans-6c" x="2173.388672"/>
     <use xlink:href="#DejaVuSans-20" x="2201.171875"/>
     <use xlink:href="#DejaVuSans-6e" x="2232.958984"/>
     <use xlink:href="#DejaVuSans-75" x="2296.337891"/>
     <use xlink:href="#DejaVuSans-6d" x="2359.716797"/>
     <use xlink:href="#DejaVuSans-62" x="2457.128906"/>
     <use xlink:href="#DejaVuSans-65" x="2520.605469"/>
     <use xlink:href="#DejaVuSans-72" x="2582.128906"/>
     <use xlink:href="#DejaVuSans-20" x="2623.242188"/>
     <use xlink:href="#DejaVuSans-6f" x="2655.029297"/>
     <use xlink:href="#DejaVuSans-66" x="2716.210938"/>
     <use xlink:href="#DejaVuSans-20" x="2751.416016"/>
     <use xlink:href="#DejaVuSans-63" x="2783.203125"/>
     <use xlink:href="#DejaVuSans-6c" x="2838.183594"/>
     <use xlink:href="#DejaVuSans-75" x="2865.966797"/>
     <use xlink:href="#DejaVuSans-73" x="2929.345703"/>
     <use xlink:href="#DejaVuSans-74" x="2981.445312"/>
     <use xlink:href="#DejaVuSans-65" x="3020.654297"/>
     <use xlink:href="#DejaVuSans-72" x="3082.177734"/>
     <use xlink:href="#DejaVuSans-73" x="3123.291016"/>
    </g>
   </g>
  </g>
 </g>
 <defs>
  <clipPath id="pb99e4b1cc8">
   <rect x="50.815865" y="18.118365" width="447.151948" height="531.926083"/>
  </clipPath>
  <clipPath id="p7130538746">
   <rect x="557.847813" y="18.118365" width="447.151947" height="531.926083"/>
  </clipPath>
 </defs>
</svg>
